<svg width="48" height="48" fill="none" xmlns="http://www.w3.org/2000/svg"><path d="M24 0C10.746 0 0 10.744 0 23.999 0 37.254 10.746 48 24 48s24-10.746 24-24.001S37.254 0 24 0zm13.615 15.907H36.52c-.406 0-.98.585-.98.96v13.588c0 .375.574.887.98.887h1.094v3.225h-9.906v-3.225h2.073V17.059h-.101l-4.842 17.508H21.09l-4.78-17.508h-.12v14.283h2.073v3.225H9.97v-3.225h1.062c.437 0 1.01-.512 1.01-.887V16.867c0-.375-.573-.96-1.01-.96H9.97V12.68h10.37l3.405 12.67h.093l3.437-12.67h10.339v3.226z" fill="#fff"/></svg>