<svg width="48" height="48" fill="none" xmlns="http://www.w3.org/2000/svg"><path d="M0 0h48v48H0z"/><path d="M0 0h48v48H0z"/><path d="M0 0h48v48H0z"/><path fill-rule="evenodd" clip-rule="evenodd" d="M48 24C48 10.745 37.255 0 24 0S0 10.745 0 24s10.745 24 24 24 24-10.745 24-24zm-2.88 0c0-11.664-9.456-21.12-21.12-21.12C12.336 2.88 2.88 12.336 2.88 24c0 11.664 9.456 21.12 21.12 21.12 11.664 0 21.12-9.456 21.12-21.12zm-7.944 2.705a13.786 13.786 0 01-.756 2.526 13.33 13.33 0 01-1.196 2.282 13.45 13.45 0 01-1.58 1.99 12.953 12.953 0 01-4.12 2.88 12.67 12.67 0 01-5.045 1.057 12.633 12.633 0 01-7.247-2.297 13.353 13.353 0 01-4.693-5.912A13.77 13.77 0 0111.52 24a13.743 13.743 0 012.214-7.515c.463-.713.996-1.38 1.582-1.99a13.298 13.298 0 011.916-1.638 12.875 12.875 0 012.202-1.242 12.594 12.594 0 0112.292 1.242 13.369 13.369 0 011.918 1.639 13.472 13.472 0 012.776 4.272 13.946 13.946 0 01.756 7.937zm-23.527-5.071c.292.002 4.904.063 10.218-1.401a69.399 69.399 0 00-4.11-6.614c-3.086 1.511-5.39 4.46-6.108 8.015zm-.229 2c-.003.123-.008.243-.008.366 0 2.948 1.072 5.637 2.835 7.669-.003-.006 3.025-5.578 8.998-7.581a9.62 9.62 0 01.437-.138 39.503 39.503 0 00-.898-1.95c-5.699 1.769-11.167 1.642-11.364 1.634zm11.06-11.11c-.9 0-1.773.112-2.608.321.165.231 2.244 3.091 4.137 6.695 4.176-1.623 5.753-4.112 5.78-4.154-1.949-1.782-4.507-2.862-7.31-2.862zm1.883 13.353c-6.53 2.36-8.663 7.118-8.686 7.17 1.879 1.515 4.236 2.43 6.802 2.43a10.67 10.67 0 004.321-.91c-.163-1.003-.806-4.518-2.364-8.715-.024.008-.05.016-.073.025zm9.044-.058c-.228-.076-3.325-1.093-6.897-.499 1.452 4.137 2.042 7.507 2.154 8.198 2.485-1.739 4.25-4.5 4.743-7.699zm-7.81-2.904l.238.594c3.802-.496 7.548.339 7.709.373a11.676 11.676 0 00-2.517-7.173c-.021.03-1.796 2.69-6.166 4.541.257.548.505 1.105.735 1.665z" fill="#EA4C89"/></svg>