<svg width="48" height="48" fill="none" xmlns="http://www.w3.org/2000/svg"><path d="M0 0h48v48H0z"/><path d="M0 0h48v48H0z"/><path d="M0 0h48v48H0z"/><path fill-rule="evenodd" clip-rule="evenodd" d="M24 48c13.255 0 24-10.745 24-24S37.255 0 24 0 0 10.745 0 24s10.745 24 24 24zm0-2.88c11.664 0 21.12-9.456 21.12-21.12 0-11.664-9.456-21.12-21.12-21.12C12.336 2.88 2.88 12.336 2.88 24c0 11.664 9.456 21.12 21.12 21.12zM13.44 19.313v13.959h4.522V19.313H13.44zm2.558-6.833c-1.547 0-2.558 1.042-2.558 2.411 0 1.34.981 2.413 2.5 2.413h.028c1.577 0 2.559-1.073 2.559-2.413-.03-1.369-.982-2.411-2.529-2.411zm13.356 6.833c-2.4 0-3.476 1.355-4.076 2.306v-1.977h-4.522c.06 1.31 0 13.958 0 13.958h4.522v-7.796c0-.417.03-.833.15-1.132.326-.833 1.07-1.696 2.32-1.696 1.636 0 2.29 1.28 2.29 3.156V33.6h4.522v-8.004c0-4.287-2.23-6.283-5.206-6.283z" fill="#0077B5"/></svg>