<svg width="48" height="48" fill="none" xmlns="http://www.w3.org/2000/svg"><path d="M0 0h48v48H0z"/><path d="M0 0h48v48H0z"/><path d="M0 0h48v48H0z"/><path fill-rule="evenodd" clip-rule="evenodd" d="M24 48c13.255 0 24-10.745 24-24S37.255 0 24 0 0 10.745 0 24s10.745 24 24 24zm0-2.88c11.664 0 21.12-9.456 21.12-21.12 0-11.664-9.456-21.12-21.12-21.12C12.336 2.88 2.88 12.336 2.88 24c0 11.664 9.456 21.12 21.12 21.12zm-.305-25.388l.046.79-.763-.098c-2.778-.37-5.204-1.626-7.264-3.735l-1.007-1.046-.26.772c-.55 1.723-.198 3.543.946 4.766.61.676.473.773-.58.37-.366-.128-.686-.225-.717-.177-.107.113.26 1.578.55 2.158.396.805 1.205 1.594 2.09 2.06l.748.371-.885.016c-.855 0-.885.016-.794.354.306 1.047 1.511 2.158 2.854 2.64l.946.339-.824.515a8.313 8.313 0 01-4.09 1.192c-.686.016-1.251.08-1.251.129 0 .16 1.862 1.062 2.945 1.416 3.25 1.047 7.112.596 10.011-1.191 2.06-1.272 4.12-3.8 5.082-6.247.519-1.304 1.038-3.687 1.038-4.83 0-.741.045-.838.9-1.723.503-.515.977-1.079 1.068-1.24.153-.306.137-.306-.64-.032-1.298.483-1.481.419-.84-.306.473-.515 1.038-1.449 1.038-1.723 0-.048-.23.033-.489.177-.274.161-.885.403-1.343.548l-.824.273-.748-.53c-.412-.29-.992-.613-1.297-.71-.778-.225-1.968-.192-2.67.065a4.614 4.614 0 00-2.976 4.637c-.137-2.045 0 0 0 0z" fill="#55ACEE"/></svg>